<?xml version="1.0" encoding="UTF-8"?>
<!DOCTYPE svg PUBLIC "-//W3C//DTD SVG 1.1//EN" "http://www.w3.org/Graphics/SVG/1.1/DTD/svg11.dtd">
<!-- Creator: CorelDRAW -->
<svg xmlns="http://www.w3.org/2000/svg" xml:space="preserve" width="736.996mm" height="719.957mm" version="1.1" style="shape-rendering:geometricPrecision; text-rendering:geometricPrecision; image-rendering:optimizeQuality; fill-rule:evenodd; clip-rule:evenodd"
viewBox="0 0 21104.99 20617.05"
 xmlns:xlink="http://www.w3.org/1999/xlink"
 xmlns:xodm="http://www.corel.com/coreldraw/odm/2003">
 <defs>
  <style type="text/css">
   <![CDATA[
    .fil16 {fill:black;fill-rule:nonzero}
    .fil12 {fill:white;fill-rule:nonzero}
    .fil10 {fill:white;fill-rule:nonzero;fill-opacity:0.125490}
    .fil8 {fill:white;fill-rule:nonzero;fill-opacity:0.250980}
    .fil30 {fill:white;fill-rule:nonzero;fill-opacity:0.274510}
    .fil23 {fill:white;fill-rule:nonzero;fill-opacity:0.400000}
    .fil29 {fill:white;fill-rule:nonzero;fill-opacity:0.423529}
    .fil9 {fill:white;fill-rule:nonzero;fill-opacity:0.501961}
    .fil15 {fill:white;fill-rule:nonzero;fill-opacity:0.650980}
    .fil27 {fill:white;fill-rule:nonzero;fill-opacity:0.800000}
    .fil13 {fill:url(#id0);fill-rule:nonzero}
    .fil1 {fill:url(#id1);fill-rule:nonzero}
    .fil3 {fill:url(#id2);fill-rule:nonzero}
    .fil24 {fill:url(#id3);fill-rule:nonzero}
    .fil6 {fill:url(#id4);fill-rule:nonzero}
    .fil22 {fill:url(#id5);fill-rule:nonzero}
    .fil7 {fill:url(#id6);fill-rule:nonzero}
    .fil11 {fill:url(#id7);fill-rule:nonzero}
    .fil34 {fill:url(#id8);fill-rule:nonzero}
    .fil36 {fill:url(#id9);fill-rule:nonzero}
    .fil39 {fill:url(#id10);fill-rule:nonzero}
    .fil44 {fill:url(#id11);fill-rule:nonzero}
    .fil48 {fill:url(#id12);fill-rule:nonzero}
    .fil46 {fill:url(#id13);fill-rule:nonzero}
    .fil45 {fill:url(#id14);fill-rule:nonzero}
    .fil41 {fill:url(#id15);fill-rule:nonzero}
    .fil40 {fill:url(#id16);fill-rule:nonzero}
    .fil2 {fill:url(#id17);fill-rule:nonzero}
    .fil51 {fill:url(#id18);fill-rule:nonzero}
    .fil32 {fill:url(#id19);fill-rule:nonzero}
    .fil17 {fill:url(#id20);fill-rule:nonzero}
    .fil14 {fill:url(#id21);fill-rule:nonzero}
    .fil33 {fill:url(#id22);fill-rule:nonzero}
    .fil50 {fill:url(#id23);fill-rule:nonzero}
    .fil31 {fill:url(#id24);fill-rule:nonzero}
    .fil47 {fill:url(#id25);fill-rule:nonzero}
    .fil5 {fill:url(#id26);fill-rule:nonzero}
    .fil26 {fill:url(#id27);fill-rule:nonzero}
    .fil25 {fill:url(#id28);fill-rule:nonzero}
    .fil49 {fill:url(#id29);fill-rule:nonzero}
    .fil42 {fill:url(#id30);fill-rule:nonzero}
    .fil4 {fill:url(#id31);fill-rule:nonzero}
    .fil35 {fill:url(#id32);fill-rule:nonzero}
    .fil28 {fill:url(#id33);fill-rule:nonzero}
    .fil38 {fill:url(#id34);fill-rule:nonzero}
    .fil37 {fill:url(#id35);fill-rule:nonzero}
    .fil43 {fill:url(#id36);fill-rule:nonzero}
    .fil0 {fill:url(#id37);fill-rule:nonzero;fill-opacity:0.301961}
    .fil20 {fill:url(#id38);fill-rule:nonzero;fill-opacity:0.639216}
    .fil21 {fill:url(#id39);fill-rule:nonzero;fill-opacity:0.639216}
    .fil19 {fill:url(#id40);fill-rule:nonzero;fill-opacity:0.800000}
    .fil18 {fill:url(#id41);fill-rule:nonzero;fill-opacity:0.800000}
   ]]>
  </style>
  <linearGradient id="id0" gradientUnits="userSpaceOnUse" x1="657.3" y1="12973.61" x2="20291.12" y2="12973.61">
   <stop offset="0" style="stop-opacity:1; stop-color:#2B3582"/>
   <stop offset="1" style="stop-opacity:1; stop-color:#150E42"/>
  </linearGradient>
  <linearGradient id="id1" gradientUnits="userSpaceOnUse" x1="17394.29" y1="121.23" x2="17447.33" y2="2432.13">
   <stop offset="0" style="stop-opacity:1; stop-color:#A737D5"/>
   <stop offset="1" style="stop-opacity:1; stop-color:#EF497A"/>
  </linearGradient>
  <linearGradient id="id2" gradientUnits="userSpaceOnUse" x1="19923.29" y1="4123.16" x2="17457.85" y2="4892.63">
   <stop offset="0" style="stop-opacity:1; stop-color:#9F5699"/>
   <stop offset="1" style="stop-opacity:1; stop-color:#202278"/>
  </linearGradient>
  <linearGradient id="id3" gradientUnits="userSpaceOnUse" x1="10938.91" y1="2992.81" x2="9597.83" y2="16426.37">
   <stop offset="0" style="stop-opacity:1; stop-color:#FDF53F"/>
   <stop offset="1" style="stop-opacity:1; stop-color:#D93C65"/>
  </linearGradient>
  <linearGradient id="id4" gradientUnits="userSpaceOnUse" xlink:href="#id1" x1="17138.34" y1="8145" x2="18297.25" y2="2462.44">
  </linearGradient>
  <linearGradient id="id5" gradientUnits="userSpaceOnUse" xlink:href="#id0" x1="10484.31" y1="16547.6" x2="10613.11" y2="20904.22">
  </linearGradient>
  <linearGradient id="id6" gradientUnits="userSpaceOnUse" xlink:href="#id1" x1="6165.57" y1="8311.61" x2="11157.61" y2="8311.61">
  </linearGradient>
  <linearGradient id="id7" gradientUnits="userSpaceOnUse" x1="1187.65" y1="7402.39" x2="6990.23" y2="7402.39">
   <stop offset="0" style="stop-opacity:1; stop-color:#B37CFF"/>
   <stop offset="1" style="stop-opacity:1; stop-color:#F895E7"/>
  </linearGradient>
  <linearGradient id="id8" gradientUnits="userSpaceOnUse" x1="45431.67" y1="19812.39" x2="45075.81" y2="19812.39">
   <stop offset="0" style="stop-opacity:1; stop-color:#53D8FF"/>
   <stop offset="1" style="stop-opacity:1; stop-color:#3840F7"/>
  </linearGradient>
  <linearGradient id="id9" gradientUnits="userSpaceOnUse" x1="45246.35" y1="19159.29" x2="44926.47" y2="19159.29">
   <stop offset="0" style="stop-opacity:1; stop-color:#F9B776"/>
   <stop offset="1" style="stop-opacity:1; stop-color:#F47960"/>
  </linearGradient>
  <linearGradient id="id10" gradientUnits="userSpaceOnUse" x1="44115.8" y1="17962.68" x2="43959.82" y2="17662.99">
   <stop offset="0" style="stop-opacity:1; stop-color:#FDF53F"/>
   <stop offset="0.658824" style="stop-opacity:1; stop-color:#E57A58"/>
   <stop offset="1" style="stop-opacity:1; stop-color:#D93C65"/>
  </linearGradient>
  <linearGradient id="id11" gradientUnits="userSpaceOnUse" xlink:href="#id9" x1="41966.87" y1="12206.35" x2="41974.16" y2="13846.94">
  </linearGradient>
  <linearGradient id="id12" gradientUnits="userSpaceOnUse" xlink:href="#id9" x1="33980.31" y1="14492.23" x2="33739.25" y2="14492.23">
  </linearGradient>
  <linearGradient id="id13" gradientUnits="userSpaceOnUse" xlink:href="#id0" x1="41338.61" y1="13175.95" x2="36550.11" y2="13175.95">
  </linearGradient>
  <linearGradient id="id14" gradientUnits="userSpaceOnUse" xlink:href="#id0" x1="45179.18" y1="15238.25" x2="40539.14" y2="15238.25">
  </linearGradient>
  <linearGradient id="id15" gradientUnits="userSpaceOnUse" x1="39590.76" y1="11819.71" x2="44085.51" y2="17972.02">
   <stop offset="0" style="stop-opacity:1; stop-color:#CE1567"/>
   <stop offset="1" style="stop-opacity:1; stop-color:#7A1DBC"/>
  </linearGradient>
  <linearGradient id="id16" gradientUnits="userSpaceOnUse" xlink:href="#id9" x1="44301.11" y1="14524.16" x2="45437.62" y2="15514.84">
  </linearGradient>
  <linearGradient id="id17" gradientUnits="userSpaceOnUse" xlink:href="#id2" x1="21180.39" y1="6052.52" x2="20569.61" y2="6045.42">
  </linearGradient>
  <linearGradient id="id18" gradientUnits="userSpaceOnUse" xlink:href="#id9" x1="35517.19" y1="11993.3" x2="36111.64" y2="12508.54">
  </linearGradient>
  <linearGradient id="id19" gradientUnits="userSpaceOnUse" xlink:href="#id0" x1="44117.51" y1="19644.3" x2="43194.17" y2="19644.3">
  </linearGradient>
  <linearGradient id="id20" gradientUnits="userSpaceOnUse" xlink:href="#id8" x1="10612.55" y1="10596.02" x2="9226.09" y2="27642.18">
  </linearGradient>
  <linearGradient id="id21" gradientUnits="userSpaceOnUse" xlink:href="#id8" x1="10604.97" y1="10596.04" x2="9218.51" y2="27649.72">
  </linearGradient>
  <linearGradient id="id22" gradientUnits="userSpaceOnUse" xlink:href="#id9" x1="44058.66" y1="19380.32" x2="43793.47" y2="19380.32">
  </linearGradient>
  <linearGradient id="id23" gradientUnits="userSpaceOnUse" xlink:href="#id0" x1="42142.12" y1="11506.22" x2="41397.69" y2="12492.04">
  </linearGradient>
  <linearGradient id="id24" gradientUnits="userSpaceOnUse" xlink:href="#id8" x1="43915.09" y1="19824.04" x2="42975.9" y2="19824.04">
  </linearGradient>
  <linearGradient id="id25" gradientUnits="userSpaceOnUse" xlink:href="#id9" x1="43846.51" y1="15049.04" x2="44983.02" y2="15918.63">
  </linearGradient>
  <linearGradient id="id26" gradientUnits="userSpaceOnUse" xlink:href="#id2" x1="42683.09" y1="4123.16" x2="45141.11" y2="4892.63">
  </linearGradient>
  <linearGradient id="id27" gradientUnits="userSpaceOnUse" xlink:href="#id3" x1="8680.62" y1="19843.48" x2="11358.35" y2="1394.12">
  </linearGradient>
  <linearGradient id="id28" gradientUnits="userSpaceOnUse" xlink:href="#id3" x1="10894.2" y1="2992.87" x2="9650.7" y2="16426.21">
  </linearGradient>
  <linearGradient id="id29" gradientUnits="userSpaceOnUse" xlink:href="#id9" x1="40381.21" y1="12045.39" x2="41119.07" y2="12639.11">
  </linearGradient>
  <linearGradient id="id30" gradientUnits="userSpaceOnUse" xlink:href="#id15" x1="41437.11" y1="13062.3" x2="46574.14" y2="19214.61">
  </linearGradient>
  <linearGradient id="id31" gradientUnits="userSpaceOnUse" xlink:href="#id2" x1="44738.1" y1="1166.66" x2="45331.84" y2="1023.19">
  </linearGradient>
  <linearGradient id="id32" gradientUnits="userSpaceOnUse" xlink:href="#id0" x1="44913.83" y1="19531.53" x2="44404.64" y2="19531.53">
  </linearGradient>
  <linearGradient id="id33" gradientUnits="userSpaceOnUse" xlink:href="#id3" x1="12537.6" y1="-1916.92" x2="9666.02" y2="10865.04">
  </linearGradient>
  <linearGradient id="id34" gradientUnits="userSpaceOnUse" xlink:href="#id15" x1="42129.04" y1="12579.61" x2="47242.25" y2="18422.56">
  </linearGradient>
  <linearGradient id="id35" gradientUnits="userSpaceOnUse" xlink:href="#id10" x1="45581.58" y1="19402.52" x2="40952.19" y2="13069.22">
  </linearGradient>
  <linearGradient id="id36" gradientUnits="userSpaceOnUse" xlink:href="#id9" x1="42164.47" y1="14528.79" x2="41270.42" y2="14528.79">
  </linearGradient>
  <linearGradient id="id37" gradientUnits="userSpaceOnUse" xlink:href="#id7" x1="22065.61" y1="20308.05" x2="7795.32" y2="7323.81">
  </linearGradient>
  <linearGradient id="id38" gradientUnits="userSpaceOnUse" x1="642.12" y1="16987.05" x2="6029.18" y2="16987.05">
   <stop offset="0" style="stop-opacity:1; stop-color:#18459F"/>
   <stop offset="1" style="stop-opacity:1; stop-color:#2874B5"/>
  </linearGradient>
  <linearGradient id="id39" gradientUnits="userSpaceOnUse" xlink:href="#id38" x1="18803.56" y1="12494.04" x2="19902.19" y2="12494.04">
  </linearGradient>
  <linearGradient id="id40" gradientUnits="userSpaceOnUse" xlink:href="#id38" x1="13658.96" y1="11887.9" x2="16189.59" y2="11887.9">
  </linearGradient>
  <linearGradient id="id41" gradientUnits="userSpaceOnUse" xlink:href="#id38" x1="877" y1="10258.9" x2="6029.18" y2="10258.9">
  </linearGradient>
 </defs>
 <g id="Camada_x0020_1">
  <metadata id="CorelCorpID_0Corel-Layer"/>
  <g id="Illustration">
   <g>
    <path class="fil0" d="M19990.24 13928.47c-1981.61,4665.88 -7260.14,7279.75 -11837.71,6574.67 -744.86,-114.73 -2786.92,-456.5 -4594.88,-2068.82 -3480.45,-3103.86 -4224.77,-9249.88 -1417.2,-13581.13 2043.42,-3152.39 5706.45,-4939.37 9187.05,-4849.99 749.73,19.25 3622.97,137.92 6148.06,2220.04 370.88,305.83 1188.91,1032.55 1926.14,2185.44 1731.17,2707.22 1879.97,6478.96 588.54,9519.78z"/>
    <g>
     <path class="fil1" d="M17557.72 2407.32c0,67.42 -54.66,122.09 -122.09,122.09l-11.02 0c-67.42,0 -122.09,-54.66 -122.09,-122.09l0 -1822.94c0,-67.42 54.66,-122.09 122.09,-122.09l11.02 0c67.43,0 122.09,54.66 122.09,122.09l0 1822.94z"/>
     <g>
      <g>
       <polygon class="fil2" points="18400.9,4967.13 18053.03,5006.5 17974.29,4310.77 18322.16,4271.4 "/>
       <path class="fil3" d="M18690.11 3522.73c-2.9,-25.59 -21.56,-46.59 -46.63,-52.48 -25.07,-5.9 -51.14,4.61 -65.11,26.24l-292.92 453.01c-36.8,56.92 -51.52,125.33 -41.38,192.33l137.37 908c9.81,64.86 42.27,124.16 91.63,167.37l335.45 293.77c18.94,16.59 46.11,19.81 68.42,8.14 22.3,-11.66 35.13,-35.84 32.3,-60.86l-219.11 -1935.54z"/>
      </g>
      <g>
       <polygon class="fil4" points="16482.5,4967.13 16830.37,5006.5 16909.11,4310.77 16561.24,4271.4 "/>
       <path class="fil5" d="M16193.29 3522.73c2.9,-25.59 21.56,-46.59 46.63,-52.48 25.07,-5.9 51.14,4.61 65.11,26.24l292.92 453.01c36.79,56.92 51.51,125.33 41.38,192.33l-137.37 908c-9.81,64.86 -42.26,124.16 -91.63,167.37l-335.45 293.77c-18.94,16.59 -46.12,19.81 -68.42,8.14 -22.3,-11.66 -35.13,-35.84 -32.31,-60.86l219.12 -1935.54z"/>
      </g>
     </g>
     <path class="fil6" d="M18553.26 7769.13l-58 -436.73c-0.03,-0.27 -0.06,-0.52 -0.11,-0.8l-642.07 -4853.45c-8.26,-62.12 -61.24,-127.38 -123.93,-127.38l-616.83 0c-63.83,0 -141.19,66.92 -148.08,130.36l-70.04 444.48 0 0.38 -513.43 4952.22c-7.45,68.67 54.06,130.44 122.71,137.87 4.59,0.49 15.08,0.78 19.57,0.78 63.01,0 120.19,-47.45 127.12,-111.53l44.21 -393.85 780.8 -285.81 782.52 220.07 47.51 356.3c9.06,68.43 71.69,116.19 140.49,107.5 68.45,-9.09 116.68,-71.94 107.56,-140.41zm-1395.67 -4513.68l111.9 140.19 -150.4 214.82 38.5 -355.02zm518.76 2147.28l283.32 -203.85 56.29 423.81 -339.61 -219.96zm268.56 471.88l-479.12 307.69 -490.75 -274.97 483.4 -347.82 486.47 315.1zm-493.89 -617.83l-405.39 -262.57 391.32 -355.61 412.66 331.38 -398.59 286.79zm173.3 -788.42l212.67 -193.24 54.12 407.49 -266.79 -214.24zm121.96 -876.24l-164.67 -206.3 115.38 -164.8 49.29 371.1zm12.32 416.3l-331.69 301.42 -315.08 -253.02 320.27 -457.45 326.5 409.05zm-716.65 312.99l197.59 158.67 -238.3 216.56 40.71 -375.23zm-98.15 904.77l289.31 187.4 -335.86 241.66 46.55 -429.06zm-97.19 895.84l380.81 213.38 -434.21 278.85 53.4 -492.24zm627.94 351.86l524.4 293.83 -533.21 195.37 -523.54 -147.3 532.35 -341.9zm238.35 -153.08l364.65 -234.2 62.92 473.76 -427.57 -239.56zm-93.29 -3663.78l28.7 206.83 -229.32 322.89 -223.13 -272.59 28.65 -257.13 395.1 0zm-893.66 4577.12l23.11 -212.97 315.7 88.83 -338.81 124.14zm1150.94 -155.38l317 -116.14 28.34 213.32 -345.34 -97.17z"/>
    </g>
    <g>
     <path class="fil7" d="M10969.71 3091.69c-2.17,-115.31 -96.26,-210.19 -211.6,-210.19l-4359.32 0c-116.88,0 -231.67,99.84 -231.67,216.72l0 10446.5c0,56.23 32.4,110.14 72.21,149.85 39.82,39.7 98.8,61.92 155.03,61.77l4557.91 -12.44c56.72,-0.15 112.24,-23.06 151.91,-63.6 39.67,-40.53 62.04,-96.57 60.97,-153.27l-195.44 -10435.34z"/>
     <g>
      <g>
       <polygon class="fil8" points="7759.3,4112.48 6517.42,4110.82 6507.57,3474.28 7750.66,3474.28 "/>
       <polygon class="fil8" points="9151.3,4112.17 7910.67,4110.49 7902.17,3474.28 9144.01,3474.28 "/>
       <polygon class="fil8" points="10541.9,4111.84 9302.52,4110.17 9295.37,3474.28 10535.95,3474.28 "/>
      </g>
      <g>
       <polygon class="fil9" points="7774.82,5255.04 6535.11,5255.84 6525.29,4623.45 7766.2,4622.95 "/>
       <polygon class="fil8" points="9164.39,5254.16 7925.93,5254.94 7917.46,4622.88 9157.13,4622.37 "/>
       <polygon class="fil9" points="10552.57,5253.26 9315.35,5254.06 9308.23,4622.31 10546.65,4621.8 "/>
      </g>
      <g>
       <polygon class="fil9" points="7790.28,6389.75 6552.73,6391.05 6542.95,5760.87 7781.7,5759.84 "/>
       <polygon class="fil9" points="9177.45,6388.3 7941.13,6389.59 7932.69,5759.72 9170.2,5758.71 "/>
       <polygon class="fil9" points="10563.22,6386.84 9328.14,6388.14 9321.04,5758.58 10557.31,5757.56 "/>
      </g>
      <g>
       <polygon class="fil9" points="7805.7,7520.53 6570.29,7522.34 6560.54,6894.32 7797.14,6892.8 "/>
       <polygon class="fil9" points="9190.45,7518.51 7956.28,7520.31 7947.87,6892.62 9183.23,6891.09 "/>
       <polygon class="fil9" points="10573.82,7516.5 9340.88,7518.29 9333.81,6890.91 10567.93,6889.39 "/>
      </g>
      <g>
       <polygon class="fil8" points="7821.06,8647.41 6587.79,8649.71 6578.08,8023.87 7812.53,8021.84 "/>
       <polygon class="fil9" points="9203.41,8644.82 7971.38,8647.12 7963,8021.6 9196.22,8019.58 "/>
       <polygon class="fil9" points="10584.38,8642.25 9353.58,8644.54 9346.53,8019.33 10578.52,8017.31 "/>
      </g>
      <g>
       <polygon class="fil9" points="7836.37,9770.39 6605.24,9773.19 6595.55,9149.51 7827.86,9146.99 "/>
       <polygon class="fil8" points="9216.32,9767.26 7986.43,9770.04 7978.07,9146.68 9209.16,9144.16 "/>
       <polygon class="fil9" points="10594.91,9764.13 9366.24,9766.91 9359.21,9143.86 10589.06,9141.33 "/>
      </g>
      <g>
       <polygon class="fil8" points="7851.62,10889.51 6622.62,10892.8 6612.96,10271.27 7843.15,10268.25 "/>
       <polygon class="fil10" points="9229.2,10885.83 8001.42,10889.1 7993.1,10267.88 9222.05,10264.87 "/>
       <polygon class="fil8" points="10605.41,10882.13 9378.85,10885.42 9371.85,10264.5 10599.58,10261.5 "/>
      </g>
      <g>
       <polygon class="fil9" points="7866.81,12004.77 6639.94,12008.55 6630.32,11389.16 7858.38,11385.66 "/>
       <polygon class="fil9" points="9242.03,12000.54 8016.37,12004.32 8008.07,11385.23 9234.9,11381.72 "/>
       <polygon class="fil8" points="10615.86,11996.32 9391.42,12000.08 9384.44,11381.3 10610.06,11377.8 "/>
      </g>
      <g>
       <polygon class="fil9" points="7881.97,13116.22 6657.2,13120.48 6647.62,12503.22 7873.56,12499.22 "/>
       <polygon class="fil9" points="9254.81,13111.44 8031.25,13115.7 8022.99,12498.74 9247.71,12494.75 "/>
       <polygon class="fil9" points="10626.28,13106.67 9403.95,13110.92 9396.99,12494.26 10620.5,12490.28 "/>
      </g>
     </g>
    </g>
    <g>
     <path class="fil11" d="M6764.16 1247.01c-1.62,-86.29 -72.04,-155.74 -158.35,-155.74l-5235.26 0c-87.47,0 -180.38,71.59 -180.38,159.05l0 12218.13c0,65.29 36.99,127.9 83.21,174.01 46.23,46.1 114.41,71.91 179.71,71.74l5292.61 -14.45c65.86,-0.17 130.26,-26.78 176.33,-73.86 46.07,-47.08 72.01,-110.83 70.77,-176.68l-228.63 -12202.2z"/>
     <g>
      <polygon class="fil12" points="3757.62,1957.15 2045.04,1951.22 2045.67,1736.94 3756.33,1742.35 "/>
      <polygon class="fil12" points="3762.31,2746.4 2042.69,2738.55 2043.33,2522.51 3761.02,2529.83 "/>
      <polygon class="fil12" points="3767.05,3542.17 2040.32,3532.37 2040.97,3314.55 3765.74,3323.82 "/>
      <polygon class="fil12" points="3771.82,4344.56 2037.94,4332.78 2038.59,4113.15 3770.51,4124.39 "/>
      <polygon class="fil12" points="3776.64,5153.63 2035.53,5139.83 2036.2,4918.37 3775.32,4931.61 "/>
      <polygon class="fil12" points="3786.38,6792.15 2030.66,6774.22 2031.33,6549.03 3785.04,6566.39 "/>
      <polygon class="fil12" points="3801.31,9302.24 2023.2,9277.85 2023.89,9046.9 3799.93,9070.69 "/>
      <polygon class="fil12" points="3781.48,5969.46 2033.11,5953.61 2033.77,5730.3 3780.16,5745.59 "/>
      <polygon class="fil12" points="3791.31,7621.8 2028.19,7601.75 2028.87,7374.66 3789.96,7394.14 "/>
      <polygon class="fil12" points="3796.29,8458.46 2025.71,8436.26 2026.39,8207.25 3794.93,8228.87 "/>
      <polygon class="fil12" points="3806.37,10153.24 2020.67,10126.62 2021.36,9893.7 3804.98,9919.7 "/>
      <polygon class="fil12" points="3811.48,11011.53 2018.12,10982.66 2018.82,10747.73 3810.08,10775.99 "/>
      <polygon class="fil12" points="3816.63,11877.25 2015.54,11846.07 2016.25,11609.12 3815.21,11639.67 "/>
      <polygon class="fil12" points="3821.82,12750.44 2012.95,12716.92 2013.66,12477.93 3820.4,12510.81 "/>
      <polygon class="fil12" points="6002.94,1964.92 4279.61,1958.95 4277.75,1744.01 5999.13,1749.44 "/>
      <polygon class="fil12" points="6016.91,2756.69 4286.46,2748.79 4284.59,2532.06 6013.07,2539.42 "/>
      <polygon class="fil12" points="6031.01,3555.02 4293.36,3545.16 4291.47,3326.63 6027.14,3335.95 "/>
      <polygon class="fil12" points="6045.22,4360.01 4300.33,4348.15 4298.41,4127.81 6041.32,4139.12 "/>
      <polygon class="fil12" points="6059.55,5171.72 4307.35,5157.83 4305.42,4935.65 6055.62,4948.98 "/>
      <polygon class="fil12" points="6088.58,6815.66 4321.57,6797.61 4319.61,6571.68 6084.58,6589.15 "/>
      <polygon class="fil12" points="6133.04,9334.22 4343.34,9309.68 4341.34,9077.94 6128.94,9101.88 "/>
      <polygon class="fil12" points="6074,5990.24 4314.42,5974.29 4312.48,5750.25 6070.04,5765.63 "/>
      <polygon class="fil12" points="6103.27,7648.09 4328.76,7627.91 4326.79,7400.07 6099.24,7419.66 "/>
      <polygon class="fil12" points="6118.09,8487.58 4336.02,8465.22 4334.03,8235.45 6114.03,8257.2 "/>
      <polygon class="fil12" points="6148.12,10188.14 4350.73,10161.35 4348.7,9927.63 6143.98,9953.8 "/>
      <polygon class="fil12" points="6163.32,11049.41 4358.18,11020.33 4356.13,10784.61 6159.15,10813.05 "/>
      <polygon class="fil12" points="6178.66,11918.15 4365.69,11886.76 4363.63,11648.99 6174.45,11679.74 "/>
      <polygon class="fil12" points="6194.13,12794.41 4373.27,12760.66 4371.19,12520.83 6189.89,12553.93 "/>
     </g>
    </g>
    <g>
     <g>
      <path class="fil13" d="M662.15 8120.2l0 9075.59c0,746.59 573.54,1357.12 1293.02,1376.36 3195.57,85.48 14372.14,292.74 17414.11,246.23 522.84,-7.99 946.38,-442 961.46,-984.19 58.66,-2108.39 153.92,-7178.34 -198.63,-9532.13 -74.25,-495.69 -477.59,-866.34 -960.92,-882.37 -2677.48,-88.85 -14525.38,-370.99 -17565.94,-300.15 -524.39,12.22 -943.12,456.56 -943.12,1000.66z"/>
      <path class="fil14" d="M1211.12 8076.02l0 8622.44c0,435.9 337.32,791.08 757.49,797.6l16963.04 217.39c416.57,6.46 758.03,-341.19 759.57,-773.35l28.38 -8545.4c1.11,-309.01 -236.22,-562.19 -534.02,-569.71l-17367.01 -363.94c-333.07,-8.41 -607.46,269.38 -607.46,614.98z"/>
      <g>
       <path class="fil15" d="M19818.93 18067.96c-0.15,0 -0.31,0 -0.46,0l-18607.79 -328.89c-14.09,-0.25 -25.32,-11.89 -25.07,-25.96 0.25,-14.11 12.95,-25.5 25.96,-25.07l18607.79 328.89c14.09,0.25 25.32,11.89 25.07,25.96 -0.24,13.93 -11.62,25.07 -25.5,25.07z"/>
      </g>
      <g>
       <g>
        <path class="fil16" d="M1224.42 8070.52l0 8622.44c0,435.9 337.32,791.08 757.49,797.6l16963.04 217.39c416.57,6.45 758.03,-341.2 759.57,-773.36l28.38 -8545.4c1.11,-309.01 -236.22,-562.19 -534.02,-569.71l-17367 -363.96c-333.08,-8.39 -607.47,269.39 -607.47,615z"/>
       </g>
       <path class="fil17" d="M1224.42 8070.52l0 8622.44c0,435.9 337.32,791.08 757.49,797.6l16963.04 217.39c416.57,6.45 758.03,-341.2 759.57,-773.36l28.38 -8545.4c1.11,-309.01 -236.22,-562.19 -534.02,-569.71l-17367 -363.96c-333.08,-8.39 -607.47,269.39 -607.47,615z"/>
       <g>
        <path class="fil16" d="M1224.42 8070.52l0 8622.44c0,435.9 337.32,791.08 757.49,797.6l16963.04 217.39c416.57,6.45 758.03,-341.2 759.57,-773.36l28.38 -8545.4c1.11,-309.01 -236.22,-562.19 -534.02,-569.71l-17367 -363.96c-333.08,-8.39 -607.47,269.39 -607.47,615z"/>
       </g>
       <g>
        <polygon class="fil18" points="982.42,7450.53 881.44,13069.15 6030.74,13069.15 5912.46,11938.22 "/>
       </g>
       <g>
        <path class="fil16" d="M1224.42 8070.52l0 8622.44c0,435.9 337.32,791.08 757.49,797.6l16963.04 217.39c416.57,6.45 758.03,-341.2 759.57,-773.36l28.38 -8545.4c1.11,-309.01 -236.22,-562.19 -534.02,-569.71l-17367 -363.96c-333.08,-8.39 -607.47,269.39 -607.47,615z"/>
       </g>
       <g>
        <polygon class="fil19" points="16076.42,8582.83 13665.1,9802.13 13821.25,13699.4 16190.42,15202.62 "/>
       </g>
       <g>
        <path class="fil16" d="M1224.42 8070.52l0 8622.44c0,435.9 337.32,791.08 757.49,797.6l16963.04 217.39c416.57,6.45 758.03,-341.2 759.57,-773.36l28.38 -8545.4c1.11,-309.01 -236.22,-562.19 -534.02,-569.71l-17367 -363.96c-333.08,-8.39 -607.47,269.39 -607.47,615z"/>
       </g>
       <g>
        <polygon class="fil20" points="644.35,16067.65 6030.74,16109.66 5864.54,17917.93 1505.59,17917.93 "/>
       </g>
       <g>
        <path class="fil16" d="M1224.42 8070.52l0 8622.44c0,435.9 337.32,791.08 757.49,797.6l16963.04 217.39c416.57,6.45 758.03,-341.2 759.57,-773.36l28.38 -8545.4c1.11,-309.01 -236.22,-562.19 -534.02,-569.71l-17367 -363.96c-333.08,-8.39 -607.47,269.39 -607.47,615z"/>
       </g>
       <g>
        <polygon class="fil21" points="18808.2,7283.68 18808.2,17005.44 19905.56,17708.04 19905.56,7458.84 "/>
       </g>
       <g>
        <path class="fil16" d="M1224.42 8070.52l0 8622.44c0,435.9 337.32,791.08 757.49,797.6l16963.04 217.39c416.57,6.45 758.03,-341.2 759.57,-773.36l28.38 -8545.4c1.11,-309.01 -236.22,-562.19 -534.02,-569.71l-17367 -363.96c-333.08,-8.39 -607.47,269.39 -607.47,615z"/>
       </g>
       <g>
        <g>
         <g>
          <polygon class="fil12" points="6226.87,17841.37 5793.03,17841.37 5793.03,12101.08 761.37,7251.72 1058.24,6936.11 6226.87,11914.71 "/>
         </g>
         <g>
          <polygon class="fil12" points="13882.85,18249.69 13449.01,18249.69 13449.01,9983 10497.42,7402.41 6193.92,12289.25 5864.9,11999.87 10455.34,6785.41 13882.85,9784.25 "/>
         </g>
         <g>
          <rect class="fil12" x="638" y="12864.98" width="5384.71" height="433.84"/>
         </g>
         <g>
          <rect class="fil12" x="638" y="15799.78" width="5384.71" height="408.32"/>
         </g>
         <g>
          <rect class="fil12" x="6022.71" y="14625.86" width="7630.47" height="459.36"/>
         </g>
         <g>
          <rect class="fil12" transform="matrix(0.86 -0.5102 0.5102 0.86 13552.4 9695.09)" width="5099.71" height="437.91"/>
         </g>
         <g>
          <rect class="fil12" transform="matrix(0.5498 -0.8353 0.8353 0.5498 13544.6 13772.7)" width="437.91" height="7724.31"/>
         </g>
         <g>
          <rect class="fil12" x="15949.97" y="8373.48" width="459.36" height="6890.38"/>
         </g>
         <g>
          <rect class="fil12" x="18578.52" y="6791.24" width="459.36" height="10054.85"/>
         </g>
         <g>
          <rect class="fil12" x="2551.99" y="8373.48" width="6609.67" height="433.84"/>
         </g>
         <g>
          <rect class="fil12" x="11432.94" y="14855.54" width="433.84" height="3394.15"/>
         </g>
        </g>
        <g>
         <polygon class="fil12" points="6036.63,12317.2 6024.24,11879.45 13882.85,11667.8 13882.85,12099.38 13670.7,12099.38 13670.99,12110.91 "/>
        </g>
       </g>
      </g>
      <path class="fil22" d="M21104.99 18633.19c0,253.31 -205.35,458.66 -458.66,458.66l-20187.68 0c-253.31,0 -458.66,-205.35 -458.66,-458.66l0 -1.4c0,-253.31 205.35,-458.66 458.66,-458.66l20187.68 0c253.31,0 458.66,205.35 458.66,458.66l0 1.4z"/>
      <path class="fil23" d="M1720.88 8394.64l0 7858.32c0,397.26 318.98,720.97 716.3,726.91l16040.64 198.12c393.92,5.89 716.81,-310.96 718.27,-704.82l26.84 -7788.11c1.05,-281.63 -223.37,-512.37 -504.98,-519.23l-16422.63 -331.69c-314.97,-7.65 -574.44,245.51 -574.44,560.49z"/>
     </g>
     <g>
      <g>
       <g>
        <circle class="fil24" cx="10551.36" cy="6898.29" r="3218.7"/>
        <path class="fil25" d="M13764.19 6638.12l-3212.82 0 -3218.7 0c0,0 -256.25,1830.33 2616.4,6723.64 125.33,213.5 354.34,362.98 601.91,363.1 247.56,0.11 476.98,-158.19 602.3,-371.69 2872.34,-4893.74 2610.91,-6715.05 2610.91,-6715.05z"/>
       </g>
       <g>
        <path class="fil26" d="M10616.3 13851.2l0 9.06 -65.38 0c-280.17,0 -541.67,-149.63 -682.45,-389.41 -1679.15,-2860.31 -2294.43,-4666.61 -2514.84,-5678.6 -62.85,-232.79 -98.95,-459.88 -110.35,-693.85 -19.45,-239.35 -4.57,-339.61 -2.82,-350.26l8.46 -51.21c129.68,-1728.97 1568.66,-3074.4 3302.44,-3074.4 1756.55,0 3208.51,1364.71 3306.68,3107.45 2.46,22.8 7.18,80.69 5.33,177.45l0.14 11.9c0,316.13 -44.66,629.28 -132.75,930.73 -228.01,1011.11 -813.89,2801.83 -2464.43,5613.89 -141.66,241.36 -420.36,387.25 -650.03,387.25zm-3195.79 -7008.92c-0.77,0 0.7,131.32 9.17,235.09l0.2 6.73c10.69,221.65 44.96,438.62 104.76,659.54l1.1 5.47c217.12,998.26 826.02,2785.07 2493.92,5626.19 107.38,182.91 339.63,296.8 553.84,296.9l32.79 93.67 0 -93.44c102.08,0.01 392.86,-114.58 501.13,-299.03 1639.95,-2794.06 2255.03,-4569.72 2459.18,-5567.32l0 -5.76c102.08,-285.26 114.13,-581.67 114.13,-881.02l-12.05 -13.15 0 -1.05c0,-93.17 -4.05,-143.56 -5.55,-156.78l-1.02 -5.41c-91.38,-1644.96 -1462.21,-2933.53 -3120.49,-2933.53 -1655.1,0 -3025.65,1292.61 -3119.99,2952l-5.15 80.9 -5.98 0 0 -0.01z"/>
       </g>
       <path class="fil27" d="M11875.75 5573.77c-725.8,-725.8 -1902.54,-725.8 -2628.34,0 -725.79,725.79 -725.79,1902.54 0,2628.34 725.8,725.8 1902.54,725.8 2628.34,0 725.79,-725.79 725.79,-1902.54 0,-2628.34z"/>
       <g>
        <path class="fil28" d="M10561.75 8850.27c-1082.06,0 -1962.37,-880.31 -1962.37,-1962.37 0,-1082.06 880.31,-1962.37 1962.37,-1962.37 1082.06,0 1962.37,880.31 1962.37,1962.37 0,1082.06 -880.32,1962.37 -1962.37,1962.37zm0 -3717.07c-967.55,0 -1754.7,787.16 -1754.7,1754.7 0,967.54 787.16,1754.7 1754.7,1754.7 967.54,0 1754.71,-787.16 1754.71,-1754.7 0,-967.54 -787.17,-1754.7 -1754.71,-1754.7z"/>
       </g>
      </g>
      <g>
       <path class="fil12" d="M8798.73 4952.87c-8.76,0 -17.49,-3.68 -23.65,-10.85 -11.21,-13.06 -9.71,-32.72 3.35,-43.92 522.11,-448.4 1189.16,-695.34 1878.3,-695.34 17.2,0 31.14,13.95 31.14,31.15 0,17.21 -13.94,31.16 -31.14,31.16 -674.27,0 -1326.91,241.6 -1837.72,680.29 -5.87,5.05 -13.09,7.52 -20.28,7.52z"/>
      </g>
      <g>
       <path class="fil12" d="M7803.52 7118.29c-17.21,0 -31.15,-13.94 -31.15,-31.15 0,-538.2 149.2,-1063.23 431.48,-1518.3 9.08,-14.64 28.28,-19.13 42.89,-10.06 14.62,9.07 19.13,28.28 10.06,42.89 -276.17,445.21 -422.14,958.88 -422.14,1485.47 -0,17.21 -13.94,31.15 -31.14,31.15z"/>
      </g>
     </g>
    </g>
    <g>
     <g>
      <path class="fil29" d="M13439.66 3326.91c-187.95,-9.5 -333.15,-170.17 -323.66,-358.11 9.5,-187.94 170.16,-333.15 358.11,-323.65 187.95,9.49 333.15,170.16 323.66,358.11 -9.5,187.94 -170.16,333.15 -358.11,323.65zm27.62 -546.47c-113.36,-5.73 -210.25,81.83 -215.97,195.2 -5.73,113.36 81.83,210.25 195.2,215.97 113.36,5.73 210.25,-81.83 215.97,-195.2 5.73,-113.36 -81.83,-210.24 -195.2,-215.97z"/>
      <g>
       <path class="fil30" d="M13493.64 2258.81c401,20.27 710.72,362.97 690.46,763.96 -1.26,24.85 -3.85,49.31 -7.6,73.37 -5.06,32.37 20.93,61.02 53.54,57.83l106.63 -10.46c23.29,-2.28 41.56,-20.57 44.47,-43.78 2.76,-21.99 4.77,-44.23 5.9,-66.71 25.93,-512.88 -370.27,-951.25 -883.14,-977.16 -38.85,-1.97 -77.25,-1.38 -115.08,1.45 -28.32,2.12 -49.3,27.23 -45.96,55.42l12.31 103.76c3.11,26.24 26.24,45.32 52.58,43.39 28.26,-2.05 56.9,-2.55 85.9,-1.08z"/>
       <path class="fil30" d="M13520.14 1734.54c690.09,34.88 1223.1,624.65 1188.23,1314.74 -0.01,0.2 -0.01,0.4 -0.03,0.59 -1.55,30.19 23.61,54.88 53.7,51.94l104.6 -10.26c17.16,-17.94 28.21,-29.48 45.37,-47.42 31.88,-795.32 -584.79,-1472.26 -1381.62,-1512.53 -69.56,-3.52 -138.15,-1.79 -205.57,4.43 -27.42,2.53 -47.07,27.72 -43.83,55.07l12.27 103.49c3.13,26.35 26.47,45.87 52.9,43.5 57.08,-5.15 115.13,-6.53 173.98,-3.55z"/>
       <path class="fil29" d="M13546.64 1210.26c953.68,48.2 1695.61,843.44 1687.84,1789.48 -0.24,29.7 24.71,53.31 54.27,50.41l103.79 -10.17c25.19,-2.47 44.85,-23.59 44.94,-48.91 3.22,-1049.65 -821.37,-1930.22 -1880.59,-1983.76 -99.5,-5.03 -197.55,-2.16 -293.82,7.38 -27.44,2.72 -47.11,27.91 -43.86,55.29l12.26 103.36c3.2,26.95 27.42,45.88 54.42,43.25 85.47,-8.33 172.48,-10.79 260.76,-6.33z"/>
      </g>
     </g>
    </g>
    <g>
     <g>
      <g>
       <path class="fil31" d="M15121.57 19788.08c162.51,14.05 444.57,36.87 666.93,46.66 133.67,5.89 210.62,-7.2 254.93,-24.95 -0.07,4.99 -0.22,9.72 -0.41,14.1 -1.05,23.4 -20.06,42.12 -43.7,43.44 -420.16,23.45 -754.3,8.12 -873.26,0.88 -24.59,-1.5 -39.25,-28.23 -26.68,-49.19 6.29,-10.5 13.91,-20.78 22.19,-30.93z"/>
       <path class="fil32" d="M15788.49 19834.73c-222.35,-9.79 -504.41,-32.6 -666.93,-46.66 159.78,-196.03 666.93,-328.16 666.93,-328.16l143.24 0c98.51,142 112.78,277.2 111.71,349.86 -44.32,17.75 -121.28,30.84 -254.94,24.95z"/>
       <path class="fil33" d="M15955.85 19226.08l-13.4 265.24c-1.45,28.72 -22.95,52.86 -51.72,56.98 -28.63,4.1 -66.95,4.62 -107.59,-8.91 -25.01,-8.33 -43.57,-29.39 -48.19,-55.09l-46.32 -258.21 267.22 0 0 -0.01z"/>
      </g>
      <g>
       <g>
        <path class="fil34" d="M17816.26 19832.73c70.48,-9.83 102.36,-46.44 115.73,-85.58 0.08,0.35 0.17,0.7 0.26,1.05 10.37,41.29 -13.67,84.08 -61.72,104.43 -58.08,24.59 -121.59,28.79 -170.89,26.75 -52.89,-2.18 -101.45,-24.07 -128.14,-59.11l-0.4 -0.52c53.1,26.27 127.63,29.37 245.16,12.97z"/>
        <path class="fil35" d="M17483.98 19224.38l118.12 0c179.93,-3.67 292.91,375.82 329.9,522.78 -13.37,39.14 -45.26,75.75 -115.73,85.58 -117.53,16.4 -192.06,13.3 -245.16,-12.97 -97.2,-127.92 -145.4,-315.26 -168.56,-424.59 -26.35,-124.35 81.43,-170.79 81.43,-170.79z"/>
       </g>
       <path class="fil36" d="M17586.92 18978.19l65.59 260.88c8.05,31.98 -7.27,65.08 -36.84,80.25 -36.7,18.83 -88.36,38.62 -135.84,32.89 -22.34,-2.7 -40.88,-18.42 -48.26,-39.44l-96.29 -274.48 251.63 -60.11z"/>
      </g>
      <path class="fil37" d="M17665.16 19053.6c-81.61,72.39 -347.05,81.94 -347.05,81.94 -956.14,-2294.84 -1347.27,-2620.85 -1347.27,-2620.85 138.06,866.17 22.26,2783.78 22.26,2783.78 -157.78,69.62 -361.2,0 -361.2,0 -12.81,-1418.04 -230.77,-2654.71 -488.26,-3629.68 646.23,-14.52 989.89,-235.67 1102.11,-324.42 538.68,868.46 1419.4,3709.23 1419.4,3709.23z"/>
      <path class="fil38" d="M16081.65 12705.3c122.32,610.12 78.48,1702.14 49.68,2200.24 -8.09,140 89.64,334.08 168.63,466.49 12.39,20.77 4.74,47.35 -16.77,58.42 -132.25,67.97 -580.3,278.64 -1099.58,304.84 -34.62,1.75 -65.54,-21.84 -74.51,-55.33 -385.18,-1438.23 -832.58,-2357.27 -832.58,-2357.27 493.94,-788.77 1805.11,-617.38 1805.11,-617.38z"/>
      <path class="fil39" d="M15905.61 16460.37c5.43,0 10.93,-1.47 15.91,-4.48 14.43,-8.83 19,-27.63 10.23,-42.05 -5.15,-8.46 -128.82,-208.37 -379.1,-329.12 -15.21,-7.3 -33.53,-0.99 -40.89,14.27 -7.34,15.22 -0.95,33.55 14.28,40.88 233.32,112.59 352.24,303.92 353.42,305.83 5.76,9.45 15.84,14.68 26.16,14.68z"/>
      <g>
       <path class="fil40" d="M16848.88 14456.36c-39.29,284.23 -155.38,594.25 -387.59,923.56l-88.27 -71.96c0,0 101.91,-413.45 43.97,-882.67 143.25,-27.95 312.43,0.86 431.9,31.08z"/>
       <path class="fil41" d="M15945.02 13458.12l136.62 -752.82c0,0 912.83,697.76 767.24,1751.06 -119.47,-30.22 -288.65,-59.03 -431.9,-31.08 -41.74,-338.02 -166.4,-704.97 -471.97,-967.17z"/>
      </g>
      <g>
       <path class="fil42" d="M14276.53 13322.69l352.35 758.84c-56.97,458.14 -303.08,656.22 -568.45,732.21 -16.55,-208.8 -69.34,-377.49 -118.33,-494.17 339.07,-350.07 334.43,-996.88 334.43,-996.88z"/>
       <path class="fil43" d="M13942.1 14319.57c48.99,116.68 101.79,285.37 118.33,494.17 -707.99,274.69 -895.3,-258.04 -895.3,-258.04l130.84 -23.08c295.49,31.12 501.88,-64.13 646.12,-213.05z"/>
      </g>
      <path class="fil44" d="M14601.16 12385.85l170.1 625.32c19.11,70.25 95.1,107.97 162.7,80.95 72.95,-29.16 165.5,-68.96 245.18,-111.98 85.05,-45.92 111.65,-155.32 57.82,-235.59l-353.66 -527.33 -282.13 168.63z"/>
     </g>
     <path class="fil45" d="M12840.65 14137.25l4358.79 1586.42c182.81,66.53 270.19,274.7 189.66,451.78l-13.23 29.08c-71.26,156.69 -256.45,225.41 -412.67,153.14l-4232.34 -1957.91 109.78 -262.52z"/>
     <path class="fil9" d="M12939.64 13182.97c0,-1166.92 -963.35,-2112.9 -2151.71,-2112.9 -1188.36,0 -2151.71,945.98 -2151.71,2112.9 0,1166.92 963.35,2112.9 2151.71,2112.9 1188.36,0 2151.71,-945.98 2151.71,-2112.9z"/>
     <path class="fil46" d="M8442.9 13182.97c0,1298.47 1071.95,2351.08 2394.27,2351.08 1322.32,0 2394.27,-1052.61 2394.27,-2351.08 0,-1298.46 -1071.96,-2351.08 -2394.27,-2351.08 -1322.32,0 -2394.27,1052.61 -2394.27,2351.08zm351.7 0c0,-1107.73 914.49,-2005.71 2042.57,-2005.71 1128.08,0 2042.56,897.99 2042.56,2005.71 0,1107.73 -914.49,2005.71 -2042.56,2005.71 -1128.08,0 -2042.57,-897.99 -2042.57,-2005.71z"/>
     <path class="fil12" d="M13047.53 13472.71c-8.06,-1.04 -13.75,-8.4 -12.73,-16.46 7,-54.65 11.93,-110.57 14.68,-166.16 0.4,-8.13 7.33,-15.18 15.43,-13.97 8.1,0.4 14.37,7.31 13.96,15.4 -2.79,56.37 -7.8,113.07 -14.89,168.46 -0.95,7.41 -7.28,12.84 -14.58,12.84 -0.61,-0 -1.24,-0.03 -1.87,-0.11zm-29.03 -669.42c-26.71,-149 -69.55,-295.6 -127.31,-435.73l-0.01 -0.03c-340.38,-825.72 -1146.63,-1359.29 -2053.99,-1359.29 -423.18,0 -834.52,117.54 -1189.53,339.91 -6.9,4.31 -15.96,2.24 -20.28,-4.65 -4.31,-6.9 -2.23,-15.98 4.65,-20.28 359.72,-225.29 776.46,-344.39 1205.16,-344.39 919.33,0 1736.25,540.69 2081.19,1377.5l0.01 0.03c58.56,142.06 101.98,290.69 129.07,441.76 1.44,7.99 -3.89,15.63 -11.88,17.07 -0.88,0.14 -1.75,0.23 -2.61,0.23 -7,0 -13.19,-5 -14.47,-12.13z"/>
     <path class="fil47" d="M16409.41 15295.42l-412.06 -33.58 -178.45 164.5c0,0 42.22,58.36 174.21,24.81 131.99,-33.54 312.79,-41.77 312.79,-41.77 0,0 182.21,82.15 184.43,-71.56l-80.92 -42.4z"/>
     <path class="fil48" d="M13217.62 14653.18c-35.64,27.84 -157.72,-30.28 -232.44,-70.46 -36.41,-19.58 -54.05,-62.17 -41.55,-101.57 17.98,-56.7 47.94,-129.88 84.85,-139.11 61.24,-15.3 335.99,196.42 189.14,311.15z"/>
     <path class="fil12" d="M17113.45 16295.33c1.6,0 3.22,-0.26 4.81,-0.8 169.55,-58.61 208.96,-158.66 212.15,-232.25 4.67,-107.58 -62.94,-207.45 -168.22,-248.51l-523.35 -204.1c-7.52,-2.98 -16.09,0.8 -19.05,8.36 -2.94,7.56 0.79,16.09 8.36,19.05l523.35 204.09c93.56,36.49 153.63,124.82 149.51,219.83 -4.07,93.76 -68.8,162.98 -192.38,205.7 -7.67,2.67 -11.75,11.03 -9.09,18.71 2.11,6.1 7.81,9.92 13.91,9.92z"/>
     <path class="fil12" d="M16472.23 15575.23c5.88,0 11.44,-3.56 13.71,-9.36 2.96,-7.56 -0.79,-16.09 -8.36,-19.05l-67.83 -26.47c-7.53,-2.99 -16.08,0.8 -19.05,8.36 -2.96,7.55 0.79,16.09 8.36,19.05l67.83 26.46c1.74,0.69 3.55,1.01 5.33,1.01z"/>
     <path class="fil49" d="M14564.41 11771.96c0,0 -140.8,323.43 -150.26,493.19 -9.46,169.76 -46.04,279.92 150.26,314.1 196.29,34.19 361.64,-63.6 451.22,-232.7 0,0 140.36,-260.56 108.87,-367.27 -31.48,-106.71 -560.09,-207.32 -560.09,-207.32z"/>
     <path class="fil50" d="M14365.35 11502.03c16.37,-71.55 43.87,-195.87 131.61,-210.85 55.89,-9.54 107.25,23.63 149.25,56.07 20.88,16.12 41.03,33.2 61.07,50.37 43.08,36.92 78.15,72.96 133.38,89.08 48.8,14.24 94.19,38.95 140.37,59.81 95.29,43.03 202.57,98.62 258.65,191.1 28.05,46.26 31.56,99.95 9.32,149.93 3.99,2.1 9.09,2.17 13.62,-0.58 17.88,-10.9 46.49,-16.01 84.73,16.14 66.5,55.92 39.29,200.97 -106.49,320.29 -6.92,5.67 -6.87,16.49 0.64,21.37 26.43,17.21 65.81,58.14 -36.27,112.71 -104.42,55.82 -166.22,49.73 -189.54,43.76 -6.27,-1.61 -10.49,-7.32 -10.09,-13.79l9.16 -148.55c0.47,-7.67 -5.62,-14.37 -13.3,-14.37l-52.89 0 -24.81 0c0,0 78.12,-160.04 37.77,-224.98 -29.1,-8.22 -59.85,-18.98 -84.4,-33.5 -9.05,-5.35 -20.84,-8.96 -33.36,-11.79 -18.27,-4.14 -38.08,-6.47 -53.16,-9.73 -20.87,-4.52 -41.88,-7.89 -62.97,-11.23 -43.08,-6.84 -84.49,-18.2 -125.39,-33.44 -94.31,-35.16 -185.56,-95.3 -227.9,-190.59 -27.5,-61.87 -23.85,-142.34 -9,-207.22z"/>
     <path class="fil51" d="M14942.46 12256c0,0 53.71,-206.6 146.34,-148.68 92.63,57.93 -48.07,231.49 -122.53,239.22l-23.81 -90.54z"/>
    </g>
   </g>
  </g>
 </g>
</svg>
